<svg width="38" height="38" viewBox="0 0 38 38" fill="none" xmlns="http://www.w3.org/2000/svg">
<path fill-rule="evenodd" clip-rule="evenodd" d="M33.9388 18.9079C33.9388 43.9357 3.83411 43.9219 3.83411 18.9079C3.83411 -6.20092 33.9388 -6.16971 33.9388 18.9079ZM37.7313 0H37.8134V0.0824381H37.7313V0ZM0.0820523 37.7953H0V37.7132H0.0820523V37.7953ZM31.485 18.8874C31.485 40.5288 6.33035 40.5288 6.33035 18.8874C6.33035 -2.75395 31.485 -2.75395 31.485 18.8874ZM18.9079 4.86651C24.4747 4.86651 28.9906 11.1345 28.9906 18.8874C28.9906 22.2481 28.1447 25.3206 26.7221 27.7533C26.3715 26.8873 25.5055 26.2687 24.5155 26.2687C23.1961 26.2687 22.1445 27.3404 22.1445 28.6397C22.1445 29.7946 22.9488 30.743 24.0417 30.9703C22.5366 32.2073 20.7835 32.908 18.9279 32.908C13.3607 32.908 8.8447 26.64 8.8447 18.8867C8.8447 15.155 9.89635 11.7527 11.6079 9.23724C12.0613 10.9696 13.6492 12.2481 15.5048 12.2481C17.7318 12.2481 19.5458 10.4337 19.5458 8.20677C19.5458 6.86658 18.8859 5.67085 17.8755 4.94895C18.2056 4.90773 18.5561 4.8669 18.9071 4.8669L18.9079 4.86651ZM23.2377 19.3204C23.2377 19.4857 23.2582 19.6502 23.2582 19.815C23.2582 23.6503 21.3201 26.7633 18.9283 26.7633C16.536 26.7633 14.5776 23.6499 14.5776 19.815C14.5776 19.6498 14.5776 19.4853 14.598 19.3204C14.7632 22.455 16.6393 24.9289 18.9283 24.9289C21.2169 24.9289 23.0929 22.455 23.2582 19.3204H23.2377Z" fill="black"/>
</svg>
