<svg width="38" height="38" viewBox="0 0 38 38" fill="none" xmlns="http://www.w3.org/2000/svg">
<path fill-rule="evenodd" clip-rule="evenodd" d="M0.0785868 37.7953H0V37.7167H0.0785868V37.7953ZM18.3678 0.00158001C19.6752 -0.0319343 19.9753 0.691519 20.8259 2.65615C21.7485 4.76948 22.0077 5.78607 23.1099 5.9887C25.7348 6.41783 29.0712 6.04996 29.112 8.03925C29.1328 9.03197 27.6617 10.0578 27.0623 10.71C26.2749 11.5428 25.7086 12.4554 24.7417 13.1015L25.781 19.265C25.2128 22.4581 19.9873 17.8446 18.7195 17.7687C18.1679 17.7591 14.3122 20.4753 13.319 20.4961C10.8532 20.4934 11.8475 18.1894 12.2389 15.6747C12.3194 15.2718 12.5013 14.2259 12.507 13.8576C12.7239 11.8371 7.21871 9.77698 8.22953 7.60317C8.85783 6.34234 12.7755 6.42555 14.3288 6.0461C15.2914 5.76797 14.9251 5.57689 15.6489 4.04333L17.0977 0.975394C17.3647 0.390242 17.5557 0.0266285 18.3662 0.00120382L18.3682 0.0023324L18.3678 0.00158001ZM28.0099 34.9269L27.4756 35.8534C27.2379 36.2652 27.2375 36.7363 27.4756 37.1481C27.7129 37.5595 28.1212 37.7953 28.5966 37.7953H32.3656H36.1346C36.61 37.7953 37.0183 37.5599 37.256 37.1481C37.4937 36.7363 37.4933 36.2652 37.256 35.8534L35.3715 32.5894L35.2782 32.4276L35.3715 32.2658L37.256 29.0015C37.4933 28.5901 37.4937 28.1185 37.256 27.7071C37.0183 27.2957 36.61 27.0596 36.1346 27.0596H32.3656H31.8082V25.9682C31.8082 24.7694 30.8278 23.789 29.629 23.789H8.16016C6.96135 23.789 5.98136 24.7694 5.98136 25.9682V27.0596H5.42354H1.65454C1.17917 27.0596 0.770861 27.2953 0.533179 27.7071C0.295497 28.1185 0.295882 28.5901 0.533179 29.0015L2.41768 32.2658L2.51128 32.4276L2.41768 32.5894L0.533179 35.8534C0.295882 36.2652 0.295497 36.7363 0.533179 37.1481C0.770861 37.5595 1.17917 37.7953 1.65454 37.7953H5.42354H9.19258C9.66795 37.7953 10.0763 37.5599 10.3139 37.1481C10.5516 36.7363 10.5512 36.2652 10.3139 35.8534L9.77926 34.9269H28.0107H28.0099ZM37.7102 0H37.7888V0.0786244H37.7102V0Z" fill="black"/>
</svg>
