<svg width="38" height="38" viewBox="0 0 38 38" fill="none" xmlns="http://www.w3.org/2000/svg">
<path fill-rule="evenodd" clip-rule="evenodd" d="M18.9052 32.3864H35.5722C36.7979 32.3864 37.8103 31.3733 37.8103 30.1317V7.63127C37.8103 6.3897 36.7972 5.37655 35.5722 5.37655H18.9052H2.23814C1.01236 5.37655 0 6.3897 0 7.63127V30.1317C0 31.3733 0.996569 32.3864 2.23814 32.3864H18.9052ZM37.7128 0H37.7945V0.0816716H37.7128V0ZM0.0816671 37.7953H0V37.7136H0.0816671V37.7953ZM24.2975 15.0006C24.2975 14.1673 24.5914 13.4319 25.1639 12.8106C25.7517 12.1896 26.5198 11.8791 27.4679 11.8791C28.6278 11.8791 29.5754 12.4022 30.3104 13.4312C31.0458 14.4605 31.4052 15.6211 31.4052 16.8951C31.4052 18.7742 30.7519 20.6529 29.4121 22.5648C28.0888 24.477 27.1739 25.4243 26.6832 25.4243C26.5526 25.4243 26.2587 25.2609 25.8338 24.9505L25.6215 24.8033C25.2783 24.5583 25.0822 24.3784 25.0822 24.2478C25.0822 24.1496 25.2779 23.8391 25.6373 23.3163C26.6666 21.8456 27.1894 20.6691 27.1894 19.8359C27.1894 19.1825 26.8461 18.6267 26.1928 18.1686C25.5391 17.7118 25.0487 17.221 24.739 16.6982C24.4285 16.1751 24.2817 15.62 24.2817 15.031L24.2975 15.0006ZM13.4966 22.304C13.4966 23.1538 13.2031 23.873 12.5983 24.494C11.9939 25.0988 11.2419 25.4093 10.3109 25.4093C9.13438 25.4093 8.18674 24.8861 7.46791 23.8572C6.73291 22.8279 6.37311 21.6672 6.37311 20.3933C6.37311 19.1024 6.73291 17.7295 7.45135 16.2922C8.17017 14.8542 8.90518 13.7432 9.64133 12.9916C10.3933 12.2397 10.8671 11.8641 11.0794 11.8641C11.21 11.8641 11.4715 12.076 11.9292 12.3545L12.141 12.4851C12.4843 12.6973 12.6476 12.91 12.6476 13.0406C12.6476 13.1384 12.4519 13.4493 12.0921 13.972C11.079 15.459 10.5894 16.6189 10.5894 17.4852C10.5894 18.1386 11.0798 18.8085 12.0432 19.5111C13.0232 20.2138 13.4966 21.1291 13.4966 22.289V22.304ZM20.1633 8.08853C20.3432 8.08853 20.5065 8.15364 20.6371 8.28423C20.7673 8.41482 20.8328 8.57815 20.8328 8.75804V10.7022H17.075V8.75804C17.075 8.57815 17.1401 8.41482 17.2707 8.28423C17.4009 8.15364 17.5642 8.08853 17.7441 8.08853H20.1621H20.1629H20.1633ZM16.9771 12.0263L17.0753 26.1936C17.0753 26.2918 17.0919 26.4058 17.1405 26.4875L18.6436 29.4942C18.6602 29.5265 18.6759 29.5593 18.7087 29.5758C18.8393 29.7064 19.0519 29.7064 19.1825 29.5758C19.2149 29.5435 19.2318 29.5265 19.2476 29.4942L20.7507 26.4875C20.8001 26.3893 20.8159 26.2918 20.8159 26.1936V12.0263H16.9598H16.9775H16.9771Z" fill="black"/>
</svg>
