<svg width="38" height="38" viewBox="0 0 38 38" fill="none" xmlns="http://www.w3.org/2000/svg">
<path fill-rule="evenodd" clip-rule="evenodd" d="M2.12412 5.40041H11.532H17.6432H30.2345H35.6843C36.8492 5.40041 37.8011 6.37426 37.8011 7.56036V10.0686L21.6926 20.1086C20.9753 20.5774 20.1224 21.2454 18.9787 21.2454C17.6216 21.2454 16.996 20.6556 16.0934 20.0658L15.8946 19.9375L15.8657 19.9164L3.8291 12.4134L3.82218 12.4061L0.0134865 10.0327V7.55919C0.0134865 6.37232 0.965368 5.39965 2.13066 5.39965L2.12295 5.40003L2.12412 5.40041ZM37.7159 0H37.7945V0.0785868H37.7159V0ZM0.0847564 37.7953H0.00616957V37.7167H0.0847564V37.7953ZM37.7937 30.2345C37.7937 31.4214 36.8419 32.3945 35.677 32.3945H2.11718C0.952267 32.3945 0 31.4206 0 30.2345V14.7509C0.810122 15.3688 1.71925 15.9093 2.53014 16.4066L12.4284 22.5178C13.2316 23.0082 14.0132 23.5482 14.8018 24.0594C16.2444 24.9974 17.0684 25.6153 18.966 25.6153C20.6286 25.6153 21.6591 24.9477 22.9596 24.1022C23.7485 23.591 24.5298 23.0578 25.333 22.5605L35.2312 16.4494L37.7891 14.7721V30.2338L37.7941 30.2345H37.7937Z" fill="black"/>
</svg>
