<svg width="38" height="38" viewBox="0 0 38 38" fill="none" xmlns="http://www.w3.org/2000/svg">
<path fill-rule="evenodd" clip-rule="evenodd" d="M20.998 0.775067C22.3536 0.775067 23.6126 1.03779 24.7879 1.54936C25.964 2.06094 27.001 2.7528 27.9005 3.62378C28.8 4.49515 29.5049 5.51869 30.0165 6.70825C30.5281 7.89782 30.7908 9.17059 30.7908 10.5119C30.7908 11.6325 30.6252 12.6838 30.2792 13.6661C29.9472 14.6484 29.4633 15.561 28.8547 16.3908C28.0245 17.5114 26.9598 18.4383 25.7005 19.1575C24.4281 19.8763 23.0447 20.2777 21.5374 20.3332V20.3886C21.5374 21.26 21.2192 22.007 20.5966 22.6572C19.9737 23.2932 19.1852 23.6253 18.2588 23.6253C17.3593 23.6253 16.5988 23.3075 15.9902 22.6572C15.3811 22.0212 15.0776 21.26 15.0776 20.3886V17.1104V16.7787C15.0776 15.9486 15.3954 15.2571 16.0457 14.7039C16.682 14.1511 17.429 13.8468 18.2588 13.7913H21.4399C22.2423 13.6946 22.92 13.3352 23.4589 12.7123C23.9982 12.0898 24.2748 11.3567 24.2748 10.5127C24.2748 9.58586 23.9566 8.7977 23.3063 8.14744C22.6703 7.51144 21.8948 7.179 20.9965 7.179C20.0697 7.179 19.2811 7.49719 18.6309 8.14744C17.9949 8.78345 17.6628 9.57199 17.6628 10.5127C17.6628 11.4122 17.3446 12.1726 16.6944 12.8086C16.0584 13.4315 15.2829 13.7493 14.3842 13.7493C13.5544 13.7493 12.8213 13.4866 12.2127 12.9469C11.6037 12.4211 11.2585 11.7296 11.2027 10.8995C11.2027 9.61321 11.438 8.35431 11.9084 7.13701C12.3791 5.91971 13.029 4.82722 13.8861 3.88612C14.7432 2.93231 15.7671 2.18498 16.9706 1.61755C18.174 1.05012 19.5157 0.773526 20.9958 0.773526L20.9969 0.775067H20.998ZM37.7075 0H37.7903V0.0828227H37.7075V0ZM0.0974609 37.7961H0.0146231V37.7132H0.0974609V37.7961ZM1.82633 20.8459C2.43537 20.223 3.14035 19.7534 3.90078 19.4487C4.67507 19.1448 5.4636 18.9783 6.28027 18.951C7.09579 18.9371 7.88434 19.0754 8.67328 19.3801C9.46183 19.6845 10.1672 20.1413 10.7893 20.7635C11.3151 21.275 11.7161 21.8286 12.0201 22.4369C12.324 23.0317 12.5178 23.668 12.6291 24.3318C12.767 25.2313 12.7119 26.1442 12.4766 27.0564C12.2273 27.969 11.7855 28.7992 11.121 29.5188L11.1487 29.5465C11.5497 29.9341 11.7574 30.4318 11.7716 31.0123C11.7855 31.5932 11.5778 32.1048 11.1487 32.5339C10.7477 32.9488 10.2492 33.1568 9.66868 33.143C9.10125 33.1287 8.60356 32.9349 8.20255 32.5339L6.6813 31.04L6.52913 30.8879C6.14121 30.5146 5.96169 30.0438 6.00291 29.5045C6.04451 28.9656 6.23828 28.481 6.58382 28.0661L8.03612 26.6C8.35431 26.1851 8.49259 25.7009 8.45098 25.1754C8.40938 24.6361 8.20175 24.1792 7.81499 23.7925C7.38585 23.3633 6.8743 23.1565 6.27952 23.1565C5.68512 23.1565 5.18741 23.3776 4.78562 23.7925C4.35648 24.2216 4.14961 24.7332 4.16309 25.3276C4.16309 25.9224 4.38421 26.4201 4.81334 26.8492C5.22823 27.2641 5.43625 27.7618 5.43625 28.3431C5.43625 28.9236 5.22823 29.4221 4.81334 29.837C4.44006 30.2245 3.98321 30.4314 3.45777 30.473C2.93194 30.5142 2.46156 30.362 2.04629 30.0022C1.4519 29.4217 0.981174 28.7433 0.621761 27.969C0.275447 27.1947 0.0685617 26.3923 0.0127045 25.5764C-0.0423822 24.7463 0.0824236 23.9304 0.372496 23.1141C0.662953 22.2982 1.14682 21.5512 1.81095 20.8729L1.82671 20.8455L1.82633 20.8459ZM14.7737 33.1977C15.1885 33.5987 15.3966 34.0972 15.4097 34.6777C15.4097 35.2582 15.2163 35.7428 14.801 36.1577C14.4135 36.5587 13.9296 36.7521 13.3626 36.7521C12.7951 36.7521 12.2974 36.5445 11.8825 36.1296C11.4815 35.7417 11.2735 35.2582 11.2596 34.6912C11.2458 34.1237 11.4396 33.6399 11.8402 33.2385C12.2551 32.8236 12.7397 32.616 13.3202 32.6025C13.9011 32.6025 14.3853 32.7963 14.7863 33.183L14.7737 33.1977ZM35.5221 22.3671C36.1862 22.9346 36.7117 23.5844 37.0849 24.3318C37.4443 25.0787 37.6793 25.853 37.7625 26.6558C37.8454 27.4582 37.7625 28.2741 37.5272 29.0766C37.2922 29.879 36.8769 30.6259 36.3237 31.2897C35.8534 31.8428 35.3279 32.2993 34.7609 32.6452C34.1804 32.9916 33.5713 33.24 32.9215 33.4064C32.0362 33.6141 31.1236 33.6276 30.1968 33.4615C29.2699 33.2959 28.412 32.9087 27.6377 32.3136L27.6239 32.3413C27.2645 32.7704 26.7937 33.0185 26.2124 33.074C25.6319 33.1295 25.1057 32.9634 24.6496 32.5763C24.2069 32.203 23.9581 31.7323 23.9308 31.1517C23.8892 30.5708 24.0548 30.0727 24.415 29.644L25.7844 28.0118L25.9228 27.8462C26.2687 27.4313 26.7252 27.2232 27.2645 27.2232C27.8034 27.2232 28.3019 27.3754 28.7441 27.694L30.3212 29.0219C30.7634 29.3123 31.2481 29.4094 31.7735 29.3258C32.2993 29.243 32.7558 28.9941 33.1013 28.5788C33.4889 28.1224 33.6545 27.5827 33.6129 27.0017C33.5575 26.4212 33.309 25.9227 32.866 25.5495C32.4095 25.1619 31.8837 24.9963 31.2889 25.0379C30.7084 25.0934 30.2099 25.3418 29.8231 25.8122C29.4495 26.2544 28.9656 26.5037 28.3843 26.5449C27.8038 26.5865 27.2922 26.4204 26.8492 26.0472C26.4343 25.7009 26.1847 25.2586 26.1019 24.747C26.019 24.2355 26.1435 23.7509 26.4482 23.3086C26.9875 22.6726 27.6239 22.1464 28.3712 21.7315C29.1182 21.3166 29.8925 21.0543 30.7091 20.943C31.5247 20.8324 32.3548 20.8879 33.1849 21.109C34.0151 21.3301 34.8032 21.7593 35.5367 22.3675H35.5221V22.3671ZM24.2212 36.2413C23.8476 36.6835 23.3637 36.9328 22.7963 36.9882C22.2289 37.0437 21.7173 36.8777 21.2612 36.504C20.832 36.1446 20.5971 35.6739 20.5555 35.1068C20.5138 34.5394 20.6799 34.0278 21.0532 33.5856C21.4126 33.1564 21.8833 32.908 22.4503 32.8525C23.0178 32.797 23.5155 32.9496 23.9442 33.309C24.3865 33.6823 24.6353 34.1661 24.6912 34.7335C24.7466 35.301 24.5806 35.8125 24.2208 36.2409V36.2417L24.2212 36.2413ZM21.4272 28.3427C21.4272 29.2418 21.109 30.0022 20.4865 30.6382C19.8636 31.2611 19.1031 31.579 18.1906 31.579C17.3192 31.579 16.5865 31.2611 15.9775 30.6382C15.3684 30.0157 15.0649 29.2553 15.0649 28.3427C15.0649 27.4713 15.3688 26.7244 15.9775 26.1015C16.5865 25.479 17.333 25.1608 18.1906 25.1608C19.09 25.1608 19.8505 25.479 20.4865 26.1015C21.109 26.7244 21.4272 27.4709 21.4272 28.3427Z" fill="black"/>
</svg>
