<svg width="38" height="38" viewBox="0 0 38 38" fill="none" xmlns="http://www.w3.org/2000/svg">
<path fill-rule="evenodd" clip-rule="evenodd" d="M0.0812819 37.7953H0.00269658V37.7167H0.0812819V37.7953ZM18.9005 0.000827625C18.3882 0.000827625 18.305 0.149854 18.0207 0.378676L14.8819 3.00398C14.6816 3.15961 14.6989 3.14534 14.4616 3.11684C13.7243 3.02785 12.9785 2.8518 12.2535 2.73162C10.0385 2.36373 9.35242 1.86023 8.75609 3.58911C8.59392 4.05793 7.47331 7.20179 7.34195 7.34239C7.21097 7.48261 5.8261 7.93214 5.53641 8.04655C2.45348 9.26924 2.10293 8.80042 2.54131 11.116L3.10681 14.4004C3.14957 14.6847 3.17731 14.6107 3.06406 14.8003C2.9585 14.9771 2.88223 15.0052 2.75434 15.1562C2.53861 15.4109 2.37258 15.6408 2.15724 15.8877L0.410647 17.9799C0.202242 18.2434 0.0604798 18.4606 0 18.6709V19.1275C0.0543163 19.3182 0.177202 19.5257 0.378288 19.775C0.567817 20.01 0.741552 20.2338 0.943023 20.4649C1.35791 20.9411 1.7023 21.3991 2.12142 21.8702L3.00319 22.9138C3.15882 23.1141 3.14457 23.0971 3.11606 23.3344L2.3618 27.6898C2.31287 28.5623 2.94271 28.8174 3.58873 29.0404C4.01979 29.1895 7.22214 30.3262 7.34195 30.4541C7.46252 30.5836 8.58852 33.7077 8.7376 34.1519C9.26767 35.7267 9.78695 35.5064 11.1152 35.2552L14.3996 34.6896C14.8364 34.6234 14.7266 34.6789 15.1554 35.0417L17.2922 36.8168C17.8165 37.2841 18.3165 37.7957 18.9005 37.7957C19.6521 37.7957 20.5647 36.7513 21.1541 36.2875C21.4149 36.0826 21.6202 35.89 21.8725 35.6773L22.9238 34.8033C23.2743 34.5329 23.4739 34.6981 24.4023 34.8738L27.689 35.4339C28.555 35.4971 28.8238 34.8426 29.0376 34.2055L30.4522 30.4526L34.1492 29.0562C35.7417 28.5053 35.4955 28.0592 35.2636 26.6693C35.2089 26.3407 35.1384 25.8797 35.0695 25.5349L34.6869 23.3957C34.6407 23.0894 34.6168 23.1943 34.7397 23.0051C34.7412 23.0028 34.8684 22.8417 34.8691 22.841L36.2213 21.2373C36.4366 20.9815 36.6026 20.7527 36.818 20.5058C37.0179 20.2762 37.2024 20.0697 37.3947 19.8274C37.625 19.5373 37.7506 19.2889 37.7941 19.0608V18.6945C37.7094 18.2596 37.3299 17.8631 36.8534 17.3284L34.8021 14.8711C34.6199 14.6358 34.6438 14.7444 34.6765 14.4624L35.4323 10.1064C35.4955 9.24 34.841 8.97143 34.2039 8.75763L30.451 7.34277L29.0546 3.64614C28.8335 3.00667 28.6008 2.33295 27.7583 2.3576L23.3938 3.10758C23.0632 3.15766 23.1179 3.17769 22.6422 2.75125L19.8258 0.399894C19.5415 0.173768 19.3821 0.000827625 18.8998 0.000827625H18.9005ZM18.9009 29.2349C16.4863 29.1679 14.2428 28.4336 12.4962 27.0041C9.37553 24.4497 8.07194 20.9449 8.77998 16.7849L8.85972 16.8716C8.82621 16.6046 8.87744 16.459 8.94562 16.2352C9.02074 15.2953 9.88942 13.8068 10.3101 13.1669C10.926 12.2304 11.6094 11.524 12.3968 10.8737C13.9554 9.58669 16.1863 8.61742 18.9009 8.56156C20.3108 8.52689 21.5697 8.82583 22.6518 9.24495C24.5413 9.97726 26.4755 11.4577 27.5349 13.1862C27.9066 13.7925 28.8863 15.4856 28.8566 16.2356C28.9267 16.4768 28.9729 16.5988 28.9406 16.8858L29.0342 16.721C29.4853 19.2569 29.2048 21.7666 27.9532 23.9377C27.2598 25.1411 26.36 26.2263 25.2948 27.0534C23.6033 28.367 21.2897 29.3104 18.9013 29.2345L18.9009 29.2349ZM37.7125 0H37.791V0.0786244H37.7125V0Z" fill="black"/>
</svg>
