<svg width="38" height="38" viewBox="0 0 38 38" fill="none" xmlns="http://www.w3.org/2000/svg">
<path fill-rule="evenodd" clip-rule="evenodd" d="M0.083208 37.7949H0.0046227V37.7163H0.083208V37.7949ZM2.79594 20.0955H11.4057L11.3968 20.4434C11.3968 24.5849 14.7563 27.9448 18.8978 27.9448C23.0397 27.9448 26.3993 24.5849 26.3993 20.4434L26.3904 20.0955H35.0013L31.1856 12.3768H27.2826V9.4484H29.7387H32.5335L37.7961 20.0951V36.1986H0V20.0951L5.26252 9.4484H8.0573H10.5135V12.3768H6.61041L2.79479 20.0955H2.79594ZM14.1588 1.59717H23.638V14.4928H27.9016L23.3984 19.9788L18.8986 25.4659L14.3992 19.9788L9.89597 14.4928H14.1592V1.59717H14.1588ZM37.7148 0H37.7934V0.0786244H37.7148V0Z" fill="black"/>
</svg>
