<svg width="38" height="38" viewBox="0 0 38 38" fill="none" xmlns="http://www.w3.org/2000/svg">
<path fill-rule="evenodd" clip-rule="evenodd" d="M37.7148 0.0150238H37.7972V0.0974619H37.7148V0.0150238ZM11.9546 29.8285C11.2747 30.0758 10.8833 29.8901 10.5948 29.1282L9.40019 25.8522C8.94717 24.6161 10.7184 23.7921 11.3163 25.3992L12.3876 28.3458C12.6145 28.9845 12.5933 29.582 11.955 29.8293V29.8289L11.9546 29.8285ZM15.3126 11.0794C15.6015 10.7908 15.8272 10.8941 16.4455 11.1414C17.105 11.4091 17.4143 11.574 17.6817 11.3887C18.3616 10.9357 19.0415 10.1321 19.4741 10.5435C19.701 10.7496 19.5978 11.3059 19.5978 11.5744C19.5978 11.9249 19.6802 12.2543 19.6182 12.6048L19.7835 12.7285L29.6112 9.14363L27.5715 7.12429C26.5206 8.15476 24.8518 8.15476 23.8214 7.14471C22.7909 6.13504 22.8117 4.48706 23.8418 3.45621L20.401 0.0774296C20.2977 -0.0258099 19.9479 -0.0258099 19.8447 0.0774296L5.56646 14.1496L7.11197 15.6743C7.52416 16.0865 7.75028 16.5811 7.31768 16.9925C6.86504 17.4456 6.47288 17.4251 5.97826 16.9309L4.3507 15.3442L1.17801 18.6401C1.05435 18.7437 1.05435 19.0931 1.17801 19.1964L1.3841 19.4025L14.8172 14.5194C15.0229 14.1072 15.5587 13.5718 15.7648 13.2628C15.9297 12.9951 15.7852 13.0155 15.6208 12.5417L15.2702 11.5524C15.2086 11.3671 15.1465 11.2435 15.3322 11.0582L15.313 11.0798L15.3126 11.0794ZM20.3397 19.9183C20.7723 19.7534 20.9576 19.9599 21.4723 20.5162C22.0285 21.1136 22.2346 21.423 22.6264 21.3609C23.5536 21.1961 24.6245 20.6814 24.8719 21.3409C24.9955 21.6703 24.6245 22.1857 24.5013 22.4735C24.336 22.8441 24.254 23.2154 24.007 23.5448L25.0783 25.4813C25.2636 26.6142 22.9766 25.6874 22.5443 25.811C22.3587 25.8727 21.3902 27.2325 21.0609 27.3562C20.2369 27.6451 20.2985 26.7587 20.1336 25.8727C20.1132 25.7286 20.0512 25.358 20.0096 25.2344C19.8447 24.534 17.7641 24.4924 17.8466 23.6476C17.9082 23.153 19.2264 22.7204 19.7006 22.4114C19.9896 22.2054 19.8447 22.1846 19.9063 21.5875L20.03 20.3929C20.0504 20.166 20.0716 20.0223 20.3393 19.9187H20.3401L20.3397 19.9183ZM5.40197 32.3629L7.27646 37.5133C7.33848 37.6786 7.68864 37.843 7.85313 37.7814L13.0455 35.8857L12.1383 33.3722C11.6857 32.136 13.457 31.312 14.0544 32.9191L14.8996 35.2266L36.4509 27.3766C36.6161 27.3149 36.7806 26.9648 36.7186 26.8003L34.8441 21.6495C33.2782 22.2262 31.5478 21.4434 30.9911 19.8983C30.4352 18.3527 31.2592 16.6427 32.8251 16.0657L30.9507 10.9153C30.8886 10.75 30.5385 10.5855 30.374 10.6475L8.82274 18.4972L9.66753 20.8047C9.89443 21.4226 9.87362 22.0409 9.23493 22.2882C8.55501 22.5355 8.16362 22.3498 7.87548 21.5878L6.98947 19.1567L1.79745 21.0524C1.63219 21.114 1.4677 21.4646 1.52972 21.6291L3.40421 26.7795C4.96975 26.2032 6.70017 26.9856 7.25681 28.5307C7.81307 30.0762 6.98908 31.7862 5.42315 32.3429L5.40197 32.3633V32.3629ZM0.0820523 37.7814H0V37.6994H0.0820523V37.7814Z" fill="black"/>
</svg>
