<svg width="38" height="38" viewBox="0 0 38 38" fill="none" xmlns="http://www.w3.org/2000/svg">
<path fill-rule="evenodd" clip-rule="evenodd" d="M0.0824375 37.7953H0V37.7128H0.0824375V37.7953ZM37.7194 0H37.8018V0.0824334H37.7194V0Z" fill="black"/>
<path fill-rule="evenodd" clip-rule="evenodd" d="M33.3175 26.1531C35.2802 27.0195 36.6496 28.9822 36.6496 31.265C36.6496 34.3491 34.1488 36.8503 31.0643 36.8503C28.7383 36.8503 26.7452 35.4285 25.905 33.4068H25.9046L22.9288 27.9899C20.7985 29.2072 18.33 29.9033 15.6974 29.9033C7.66476 29.9033 1.15259 23.4211 1.15259 15.4239C1.15259 7.42709 7.66476 0.94458 15.6974 0.94458C23.7304 0.94458 30.2426 7.42709 30.2426 15.4239C30.2426 18.238 29.4352 20.8644 28.0399 23.0868L33.3182 26.1523L33.3179 26.1527L33.3175 26.1531ZM15.7664 12.2281C17.4652 12.3233 18.8142 13.7312 18.8142 15.454C18.8142 17.2387 17.3674 18.6856 15.5826 18.6856C13.7983 18.6856 12.3514 17.2387 12.3514 15.454V15.4532C12.4122 15.4567 12.4735 15.4586 12.5351 15.4586C14.3195 15.4586 15.766 14.0121 15.7664 12.2281ZM26.14 15.4701C23.4897 19.3166 19.7449 21.7154 15.5938 21.7154C11.4311 21.7154 7.67709 19.3031 5.02599 15.437C7.67594 11.5906 11.4207 9.19218 15.5714 9.19218C19.7345 9.19218 23.4889 11.6044 26.14 15.4701Z" fill="black"/>
</svg>
