<svg width="38" height="38" viewBox="0 0 38 38" fill="none" xmlns="http://www.w3.org/2000/svg">
<path fill-rule="evenodd" clip-rule="evenodd" d="M0.302518 37.7953H0.220094V37.7128H0.302518V37.7953ZM19.2501 23.22C18.9199 23.22 18.5894 23.0964 18.3209 22.8691C17.3717 22.0228 16.4429 21.2388 15.617 20.5366C13.2225 18.493 11.1588 16.739 9.73429 15.0048C8.12444 13.0648 7.38135 11.2277 7.38135 9.22606C7.38135 7.28609 8.042 5.46938 9.25931 4.16887C10.4974 2.82714 12.1697 2.10524 14.0068 2.10524C15.3689 2.10524 16.6278 2.53862 17.7423 3.38495C18.2997 3.81832 18.7947 4.33452 19.2489 4.95357C19.6823 4.33452 20.1985 3.81871 20.7555 3.38495C21.87 2.53862 23.1088 2.10524 24.4914 2.10524C26.3285 2.10524 28.0004 2.82791 29.2389 4.16887C30.4565 5.4898 31.1168 7.28532 31.1168 9.22606C31.1168 11.2277 30.3737 13.0648 28.7635 15.0048C27.3189 16.7387 25.2545 18.493 22.8607 20.5366C22.0352 21.2381 21.1268 22.0228 20.1565 22.8691C19.9088 23.0968 19.5786 23.22 19.2481 23.22H19.2493H19.2501ZM18.9199 35.7282L0.632251 28.6486C-0.626269 28.1948 0.178475 26.0063 1.43738 26.4605L2.30451 26.7706L3.87316 22.4561C4.03842 22.0227 4.67825 21.6714 5.23528 21.8787C5.75109 22.0644 6.24688 22.4153 6.74189 22.6838C12.2945 26.2336 16.3189 24.8511 18.8991 28.2772C21.4997 24.8511 25.5037 26.2132 31.0563 22.6838C31.5513 22.4153 32.0675 22.0644 32.5629 21.8787C33.1404 21.6722 33.7806 22.0227 33.9251 22.4561L35.4937 26.7706L36.3608 26.4605C37.6197 26.0071 38.4245 28.1944 37.166 28.6486L18.8783 35.7282H18.9207H18.9199ZM37.5165 0H37.5989V0.0824381H37.5165V0Z" fill="black"/>
</svg>
