<svg width="38" height="38" viewBox="0 0 38 38" fill="none" xmlns="http://www.w3.org/2000/svg">
<path fill-rule="evenodd" clip-rule="evenodd" d="M0.083214 37.7953H0V37.7125H0.083214V37.7953ZM37.7113 0H37.7941V0.0828227H37.7113V0ZM13.5209 2.04822V5.92317C13.5209 6.67089 14.1985 7.4317 14.9601 7.4317H22.8483C23.6099 7.4317 24.2875 6.67012 24.2875 5.92317V2.04822C24.2875 1.30089 23.6099 0.540081 22.8483 0.540081H14.9601C14.1985 0.540081 13.5209 1.30166 13.5209 2.04822ZM6.55995 3.59874H10.8918V5.92394C10.8918 8.12472 12.7324 10.0616 14.9605 10.0616H22.8487C25.0625 10.0616 26.9174 8.12472 26.9174 5.92394V3.59874H31.2492C32.8413 3.59874 34.1422 4.89964 34.1422 6.49176V34.3495C34.1422 35.9412 32.8413 37.2556 31.2492 37.2556H6.56032C4.9682 37.2556 3.6673 35.9547 3.6673 34.3495V6.49176C3.6673 4.89964 4.9682 3.59874 6.56032 3.59874H6.55995ZM9.54927 21.9218H27.9968V25.036H9.54927V21.9218ZM9.54927 28.0245H25.0078V31.1386H9.54927V28.0245ZM9.6186 15.8738H18.9048V18.8905H9.6186V15.8738Z" fill="black"/>
</svg>
