<svg width="38" height="38" viewBox="0 0 38 38" fill="none" xmlns="http://www.w3.org/2000/svg">
<path fill-rule="evenodd" clip-rule="evenodd" d="M26.5159 14.578C29.5677 14.3719 27.011 18.5365 31.6706 18.2275C33.052 18.0623 35.0313 18.1655 34.6603 15.9181C33.7944 10.9284 32.8047 15.4855 31.2789 11.8564C30.186 10.1656 28.2271 10.0212 26.4123 10.2477C26.8249 8.9487 28.4536 4.57721 28.8046 3.36144C28.1038 2.97006 25.8353 2.18613 24.9281 2.14453C23.5259 4.74247 20.4125 12.6187 19.3196 15.4439C18.701 17.4028 20.2272 17.32 21.7527 17.7329C22.7223 18.0007 23.0933 18.1039 23.5879 17.3203C24.2682 16.0834 24.4743 14.6604 26.5156 14.5988L26.5167 14.5783L26.5159 14.578ZM37.7121 0H37.7945V0.0824357H37.7121V0ZM0.082424 37.7953H0V37.7132H0.082424V37.7953ZM20.5781 24.0633C20.4957 22.8675 22.4954 21.1356 21.4441 20.3101C21.1552 20.0832 18.9082 18.8254 18.1039 18.8874C17.8566 19.3 17.2583 20.4753 16.8465 20.8463C15.9601 20.7022 15.0941 19.7126 13.9597 19.6298C13.4234 20.0007 11.8359 22.0628 11.7531 22.7431C12.3302 23.4854 13.8356 23.8564 14.5163 24.5987C14.1657 26.063 11.1556 28.9906 10.661 30.4753C10.9499 31.1144 13.1969 32.6198 13.9805 32.8259C15.5476 31.8567 17.0942 28.5164 18.0835 28.0218C19.3 31.6298 17.1554 32.8463 15.63 34.1869C15.7536 34.9496 17.011 36.9501 17.5888 37.3415C22.1865 35.7744 25.0317 27.4239 20.5993 24.0625L20.5785 24.0633H20.5781ZM24.4747 21.2797C25.0517 21.5686 26.1038 21.9187 26.8461 21.7331C26.9698 20.9703 27.135 19.9187 26.8873 19.0935C26.5984 18.9283 25.2374 18.4752 24.8048 18.6405C24.2065 18.8674 24.3718 20.5373 24.4543 21.2797H24.4751H24.4747ZM27.2375 20.228C27.2991 20.9907 28.021 22.455 28.4124 22.908C29.2168 22.908 30.1856 22.3718 30.5157 21.8363C30.4333 21.3829 29.691 20.0223 29.444 19.795C28.8874 19.3004 27.7941 19.9603 27.2375 20.2484V20.228ZM22.6603 25.2586C22.99 25.7332 26.4751 28.7641 26.8045 28.7641C27.1342 28.7641 29.4645 25.7744 28.9694 25.1561C28.7425 24.6199 28.4748 24.4554 27.8357 23.9396C26.7641 23.0937 24.6195 21.609 23.2998 21.671C22.0424 23.5887 21.2381 23.9184 22.6399 25.2382L22.6603 25.2586ZM13.6087 7.01104C13.5467 5.81531 13.5671 6.57805 13.8148 6.28913L15.6084 6.33035C15.8357 5.568 15.8145 4.55718 15.8357 3.6912C15.732 2.12411 14.4951 2.92846 13.2378 2.55749C12.908 2.04244 12.9901 1.2381 12.7227 0.619435C11.8979 0.289685 8.94906 0.578217 8.24834 1.03201C8.18632 1.71231 8.372 1.69189 8.12468 2.28937C7.25832 2.37181 5.95936 2.22774 5.07297 2.16572C3.36104 2.04206 3.13532 1.81517 3.11413 3.69197C3.11413 4.33067 2.99009 5.09417 3.27939 5.62963C4.0013 5.93935 5.58841 5.87733 6.45439 5.91893C8.08311 6.00099 8.90784 5.50636 8.76339 7.32114C8.16514 7.30073 7.38237 7.34156 6.74251 7.4032C5.6088 7.50682 5.83494 7.93943 5.81452 9.0323C5.85612 10.6822 5.7529 11.0116 7.40281 10.9291C7.95945 10.9087 8.66017 10.8259 9.09316 10.9495C9.29925 11.4446 9.2376 11.7539 9.21719 12.393C8.49528 12.475 7.46483 12.7435 6.74293 13.0113C2.45464 14.6196 2.72234 20.2072 7.60926 20.7018C10.3721 20.8463 12.5783 19.4853 14.2074 16.4956C14.4967 16.2483 16.0425 16.6609 16.4547 16.64C17.115 16.6196 18.6613 12.6811 16.9082 12.3514C16.0006 12.1861 15.0109 12.2689 14.1041 12.1037L14.0421 10.7843C15.5063 10.0836 16.2279 11.6507 16.2487 8.99069C16.2282 8.37203 16.3107 7.79497 16.0217 7.27877C15.3206 6.86658 14.331 7.29918 13.6503 6.96943L13.6091 7.01104H13.6087ZM8.45408 17.1759C7.34079 17.1963 7.42283 15.7117 9.50573 15.4851C9.50573 16.2479 9.4233 17.1555 8.45408 17.1759Z" fill="black"/>
</svg>
