<svg width="38" height="38" viewBox="0 0 38 38" fill="none" xmlns="http://www.w3.org/2000/svg">
<path fill-rule="evenodd" clip-rule="evenodd" d="M0.0828378 37.7953H0V37.7124H0.0828378V37.7953ZM9.8301 3.32137L8.77806 5.50326C7.33656 8.38626 8.34931 7.37351 5.52525 8.7761L3.30444 9.8478L3.44081 12.6534C3.47972 13.0629 3.61609 14.4454 3.57718 14.757C3.51902 15.1272 0.908356 18.6725 0.908356 18.9063C0.908356 19.0619 3.12916 22.3147 3.26553 22.5101C3.55753 22.9388 3.63534 22.9388 3.57679 23.6788L3.44042 25.7825C3.4019 26.3865 3.30405 27.1851 3.30405 27.9644L7.68712 30.107L8.7588 32.2693C8.95333 32.6587 9.10934 32.9511 9.30388 33.341C9.45951 33.6526 9.77156 34.1977 9.84899 34.4905C10.6672 34.4905 14.4855 34.1788 14.7583 34.2177C14.972 34.2562 15.1088 34.3926 15.2644 34.4905C15.8684 34.8999 16.4528 35.289 17.0761 35.6985C17.3878 35.9123 17.6412 36.0687 17.9529 36.2833C19.1409 37.0818 18.5569 37.16 20.6995 35.7178C21.3228 35.289 21.8876 34.9385 22.5108 34.5097C22.94 34.2177 22.94 34.1395 23.6796 34.1981L26.4848 34.4122C27.0503 34.4122 27.3616 34.4897 27.9652 34.4897C28.0041 34.3144 30.0496 30.1656 30.1078 30.1066C30.166 30.0485 34.3148 28.0029 34.4909 27.964L34.2374 23.7955C34.1203 23.0551 34.1985 22.9777 34.4909 22.5682C34.6272 22.3737 36.8865 19.0615 36.8865 18.9252C36.8865 18.7695 34.6657 15.5167 34.5294 15.3214C34.2374 14.8927 34.1596 14.8927 34.2181 14.1527L34.4909 9.86706C34.1985 9.78963 33.6923 9.49685 33.3995 9.36048L30.1074 7.72483L27.9648 3.34139C27.1466 3.34139 23.3287 3.65303 23.0559 3.61413C22.6857 3.55596 19.1405 0.945336 18.9067 0.945336C18.7511 0.945336 15.4979 3.16612 15.3026 3.30249C14.8738 3.59449 14.8738 3.6723 14.1342 3.61375L12.0305 3.47738C11.4265 3.43886 10.6279 3.34101 9.84859 3.34101L9.82972 3.32175L9.8301 3.32137ZM9.84936 18.7106L10.2978 15.1261H12.4015L11.4665 22.6645H9.4992L8.01879 19.1971L7.59004 22.6645H5.50598L6.42126 15.1261H8.33042L9.85013 18.7106H9.84936ZM14.9925 17.1135L14.895 17.9702H16.9405L16.7263 19.8986H14.6808L14.5834 20.7169H17.3693L17.1158 22.6842H12.2262L13.1419 15.1454H17.8562L17.6031 17.1127H14.9928V17.1135H14.9925ZM20.5435 18.5935L21.693 15.1454H23.7385L24.0305 18.4379L25.1993 15.1454H27.4975L24.4589 22.6842H22.569L22.1992 19.1193L20.9326 22.6842H19.1012L17.9132 15.1454H20.1336L20.5431 18.5935H20.5435ZM29.1736 22.7816C28.102 22.7816 27.0892 22.314 26.5044 21.3983L26.3681 21.1845L27.9267 19.8204L28.1019 20.1128C28.3157 20.4826 28.7252 20.7943 29.1536 20.7943C29.3871 20.7943 29.7384 20.7168 29.7384 20.4241C29.7384 20.2103 29.0954 19.8982 28.9398 19.82C27.9852 19.275 27.0888 18.7483 27.0888 17.5018C27.0888 15.9821 28.3165 15.0672 29.7576 15.0672C30.6926 15.0672 31.6086 15.4767 32.1341 16.2552L32.2704 16.4694L30.7315 17.7549L30.5562 17.5218C30.3424 17.2294 30.0885 17.0152 29.6995 17.0152C29.5246 17.0152 29.29 17.1127 29.29 17.3269C29.29 17.56 29.7384 17.8138 29.9137 17.9113C30.8875 18.4768 31.9592 18.9043 31.9592 20.2095C31.9592 21.8652 30.7315 22.8005 29.1536 22.8005L29.1732 22.7816H29.1736ZM37.7125 0H37.7953V0.0828001H37.7125V0Z" fill="black"/>
</svg>
