<svg width="38" height="38" viewBox="0 0 38 38" fill="none" xmlns="http://www.w3.org/2000/svg">
<path fill-rule="evenodd" clip-rule="evenodd" d="M0.0812773 37.7949H0.00269052V37.7163H0.0812773V37.7949ZM5.62272 5.01872C8.08236 2.55985 11.0412 0.906496 14.1739 0.0613195C14.9535 -0.150167 15.7541 0.203451 16.125 0.922276C16.4941 1.64071 16.3176 2.49704 15.6932 3.00977C12.6623 5.49792 10.7277 9.27349 10.7277 13.5001C10.7277 20.9943 16.8011 27.0676 24.2952 27.0676C28.5222 27.0676 32.2974 25.133 34.7856 22.1021C35.2979 21.4777 36.1538 21.3013 36.8731 21.6711C37.5923 22.0417 37.9455 22.8422 37.7341 23.6215C36.8885 26.7541 35.2355 29.7137 32.777 32.1726C25.2779 39.6705 13.1222 39.6705 5.62347 32.1726C-1.87449 24.6735 -1.87449 12.5178 5.62347 5.01947L5.62272 5.01872ZM24.5232 4.43547C24.9289 4.84226 25.3384 4.94741 25.8342 5.0911C25.8573 5.09688 25.8727 5.11809 25.8727 5.14158C25.8727 5.16585 25.8573 5.1855 25.8342 5.19282C25.3388 5.33497 24.9289 5.44168 24.5232 5.84732C24.1164 6.25296 24.0105 6.6628 23.8676 7.15858C23.8611 7.18208 23.8406 7.19756 23.8164 7.19756C23.7925 7.19756 23.772 7.18208 23.7659 7.15858C23.623 6.66319 23.5178 6.25296 23.1114 5.84732C22.7046 5.4413 22.2951 5.33497 21.7997 5.19282C21.777 5.18512 21.7616 5.16547 21.7616 5.14158C21.7616 5.1177 21.777 5.09649 21.7997 5.0911C22.2951 4.94741 22.705 4.84188 23.1114 4.43547C23.5182 4.02906 23.623 3.62037 23.7659 3.12459C23.7724 3.1007 23.7929 3.08531 23.8164 3.08531C23.841 3.08531 23.8614 3.1007 23.8676 3.12459C24.0105 3.61998 24.1168 4.02906 24.5232 4.43547ZM28.6521 12.977C29.5492 13.8742 30.4553 14.1076 31.5501 14.4235C31.6002 14.4381 31.6348 14.4833 31.6348 14.536C31.6348 14.59 31.6005 14.6339 31.5501 14.6485C30.4553 14.9652 29.5492 15.199 28.6521 16.0962C27.7549 16.993 27.5206 17.8986 27.2055 18.993C27.1901 19.0443 27.1451 19.0789 27.0911 19.0789C27.0391 19.0789 26.9941 19.0446 26.9786 18.993C26.6639 17.8986 26.4309 16.993 25.5321 16.0962C24.6361 15.199 23.7297 14.9652 22.6345 14.6485C22.584 14.6339 22.5493 14.59 22.5493 14.536C22.5493 14.4833 22.5836 14.4381 22.6345 14.4235C23.7297 14.1076 24.6361 13.8742 25.5321 12.977C26.4309 12.0798 26.6639 11.1738 26.9786 10.079C26.9941 10.0277 27.0391 9.99425 27.0911 9.99425C27.1451 9.99425 27.1901 10.0274 27.2055 10.079C27.5206 11.1738 27.7549 12.0798 28.6521 12.977ZM37.7125 0H37.791V0.0786244H37.7125V0Z" fill="black"/>
</svg>
