<?xml version="1.0" encoding="UTF-8"?>
<!DOCTYPE svg PUBLIC "-//W3C//DTD SVG 1.1//EN" "http://www.w3.org/Graphics/SVG/1.1/DTD/svg11.dtd">
<!-- Creator: CorelDRAW -->
<svg xmlns="http://www.w3.org/2000/svg" xml:space="preserve" width="9.9982mm" height="9.9982mm" version="1.1" style="shape-rendering:geometricPrecision; text-rendering:geometricPrecision; image-rendering:optimizeQuality; fill-rule:evenodd; clip-rule:evenodd"
viewBox="0 0 80.53 80.53"
 xmlns:xlink="http://www.w3.org/1999/xlink"
 xmlns:xodm="http://www.corel.com/coreldraw/odm/2003">
 <defs>
  <style type="text/css">
   <![CDATA[
    .fil0 {fill:black}
   ]]>
  </style>
 </defs>
 <g id="Camada_x0020_1">
  <metadata id="CorelCorpID_0Corel-Layer"/>
  <path class="fil0" d="M0.17 80.53l-0.17 0 0 -0.17 0.17 0 0 0.17zm25.68 -12.05c0.24,-1.04 4.83,-10.84 5.07,-11.89 0.86,0.02 1.51,0.41 2.2,0.65l14.76 5.37c-0.91,0.02 -14.75,3.92 -16.55,4.37 -1.88,0.47 -3.67,1.07 -5.49,1.49zm-7.45 -47.88c0,5.02 1.01,8.59 3.46,12.4 1.35,2.1 1.96,3.3 4.31,3.3 0.87,0 1.52,-0.4 1.99,-0.86 1.64,-1.59 0.67,-3.58 -0.41,-5.01 -3.98,-5.23 -4.01,-12.79 -0.16,-18.23 1.04,-1.47 1.43,-1.49 1.43,-3.17 0,-0.81 -0.41,-1.58 -0.84,-2.01 -4.6,-4.61 -9.78,7.43 -9.78,13.58zm33.13 -11.57c0,1.96 0.94,2.26 2,4.03 0.25,0.42 0.55,0.91 0.74,1.32 2.39,4.96 1.97,11.49 -1.33,15.87 -1.04,1.38 -2.18,2.94 -0.81,4.82 0.72,0.99 1.75,1.42 3.04,1.24 1.76,-0.25 2.76,-2.15 3.65,-3.49 4.09,-6.16 4.31,-14.34 1.22,-21.03 -0.68,-1.46 -2.08,-3.73 -3.23,-4.86 -1.99,-1.96 -5.28,-0.43 -5.28,2.11zm-45.65 12.21c0,6.73 2.01,11.96 5.3,17.37 0.27,0.45 0.47,0.7 0.79,1.11 1.32,1.68 1.71,2.44 3.74,2.44 1.93,0 3.49,-2.09 2.68,-4.27 -0.61,-1.63 -10.38,-11.11 -4.09,-26.63 0.83,-2.05 2.08,-3.89 3.4,-5.64 0.92,-1.21 1.02,-1.31 1.02,-2.63 0,-1.2 -0.85,-2.25 -1.77,-2.67 -1.5,-0.68 -2.95,-0.11 -3.82,0.89 -0.31,0.36 -0.51,0.69 -0.82,1.08 -1.51,1.92 -2.61,3.82 -3.69,6.14 -1.53,3.3 -2.75,8.04 -2.75,12.79zm55.96 -18.23c0,2.5 2.45,3.53 4.37,8.15 2.93,7.03 2.75,13.1 0.07,19.91 -0.6,1.52 -1.28,2.52 -2.05,3.81 -0.64,1.06 -3.78,4.19 -1.37,6.42 0.99,0.91 1.54,0.86 2.79,0.86 1.33,0 3.19,-2.64 3.8,-3.65 0.46,-0.78 0.94,-1.44 1.38,-2.26 5.7,-10.63 4.99,-22.65 -1.63,-32.67 -1.01,-1.53 -2.36,-3.58 -4.19,-3.58 -1.63,0 -3.17,1.37 -3.17,3.01zm0.54 77.52l-0.62 0c-1.06,-0.12 -2.14,-0.85 -2.86,-2.6 -0.51,-1.23 -4.92,-10.98 -4.98,-11.66 -0.79,0.02 -1.88,0.43 -2.57,0.6l-7.36 1.99c-5.95,1.74 -13.48,3.58 -19.49,5.24 -1.36,0.37 -1.26,0.17 -1.77,1.4 -0.39,0.93 -1.46,3.51 -2.06,4.12 -0.53,0.53 -1.2,0.84 -1.89,0.91l-0.58 0c-0.6,-0.06 -1.2,-0.3 -1.75,-0.73 -2.44,-1.97 -0.28,-4.98 1.08,-8.23l1.41 -3.18c0.27,-0.55 0.51,-1.16 0.72,-1.66 0.26,-0.64 0.44,-0.98 0.72,-1.65 2.43,-5.82 5.34,-11.93 7.77,-17.76 0.23,-0.55 0.42,-1.02 0.67,-1.55 0.28,-0.58 0.48,-1.05 0.73,-1.65l6.3 -14.47c-0.35,-0.48 -1.23,-0.85 -1.79,-1.38 -2.41,-2.35 -3.13,-4.18 -3.13,-7.65 0,-3.6 2.8,-6.87 5.73,-8.07 9.21,-3.76 16.55,7.01 11.29,14.14 -1.57,2.13 -2.75,2.32 -3.22,2.96 0.13,0.54 0.45,1.07 0.7,1.68 0.25,0.59 0.48,1.14 0.73,1.65l4.23 9.71c0.96,2.22 1.9,4.27 2.85,6.5l2.13 4.85c0.19,0.47 0.42,1.02 0.67,1.56l4.98 11.35c0.23,0.55 0.44,1.06 0.68,1.54l1.45 3.3c1,2.45 2.6,4.79 1.93,6.73 -0.33,0.97 -1.44,1.88 -2.69,2.01zm-25.9 -27.58c1.4,-0.33 9.03,-3.57 9.99,-3.65l3.65 8.56c-0.23,-0.02 -12.22,-4.18 -13.53,-4.86 -0.02,-0.01 -0.07,-0.04 -0.1,-0.06zm-1.74 -4.76c0.19,-0.8 3.43,-7.92 4.05,-9.42 0.44,-1.05 1.09,-2.2 1.33,-3.26l0.32 0c0.36,1.55 3.72,8.2 3.8,9.19 -0.72,0.06 -3.89,1.39 -4.78,1.72l-3.47 1.29c-0.39,0.16 -0.84,0.38 -1.27,0.48zm45.64 -48.19l0.17 0 0 0.17 -0.17 0 0 -0.17z"/>
 </g>
</svg>
