<?xml version="1.0" encoding="UTF-8"?>
<!DOCTYPE svg PUBLIC "-//W3C//DTD SVG 1.1//EN" "http://www.w3.org/Graphics/SVG/1.1/DTD/svg11.dtd">
<!-- Creator: CorelDRAW -->
<svg xmlns="http://www.w3.org/2000/svg" xml:space="preserve" width="9.9982mm" height="9.9982mm" version="1.1" style="shape-rendering:geometricPrecision; text-rendering:geometricPrecision; image-rendering:optimizeQuality; fill-rule:evenodd; clip-rule:evenodd"
viewBox="0 0 59.21 59.21"
 xmlns:xlink="http://www.w3.org/1999/xlink"
 xmlns:xodm="http://www.corel.com/coreldraw/odm/2003">
 <defs>
  <style type="text/css">
   <![CDATA[
    .fil0 {fill:black}
   ]]>
  </style>
 </defs>
 <g id="Camada_x0020_1">
  <metadata id="CorelCorpID_0Corel-Layer"/>
  <path class="fil0" d="M0.12 59.21l-0.12 0 0 -0.12 0.12 0 0 0.12zm18.44 -28.98c0,-2.29 0.1,-3.29 1.04,-5.42 0.31,-0.7 1,-1.72 1.53,-2.32 0.26,-0.29 0.34,-0.45 0.62,-0.73 0.27,-0.27 0.41,-0.34 0.68,-0.57 0.66,-0.58 1.58,-1.23 2.37,-1.59 5.07,-2.25 10.62,-0.84 13.81,3.59 2.39,3.31 2.63,7.5 0.98,11.21 -0.63,1.41 -1.69,2.63 -2.83,3.62 -1.71,1.49 -4.21,2.63 -6.54,2.63 -2.82,0 -4.79,-0.4 -7.04,-2.02 -2.62,-1.9 -4.63,-5.14 -4.63,-8.39zm29.75 -27.3l0.29 0c0.53,0.07 1.01,0.49 1.01,1.04l0 29.38c0,0.49 -2.86,3.11 -3.36,3.62 -0.29,0.3 -0.6,0.63 -1.11,0.62 -0.54,-0.01 -0.71,-0.3 -1.03,-0.62 -0.72,-0.74 -1.36,-0.95 -2.19,-0.16 -1.2,1.14 -2.31,2.32 -3.49,3.49 -0.62,0.62 -3.2,2.92 -3.2,3.67 0,1.39 2.3,1.76 0.65,3.36 -1.63,1.58 0.06,2.7 1.12,1.96 0.57,-0.4 0.94,-1.35 1.94,-0.91 0.67,0.29 0.97,1.25 1.87,1.15 0.67,-0.07 1.27,-0.9 1.68,-1.32l4.64 -4.64c0.35,-0.35 1.33,-1.14 1.33,-1.69 0,-1.12 -1.25,-1.28 -1.25,-2.19 0,-0.75 0.2,-0.78 0.7,-1.28l2.55 -2.55c0.59,-0.59 1.31,-0.99 1.33,-2.1 0.08,-4.2 0,-9.24 -0.01,-13.55 -0,-0.56 -0.05,-1.12 0.14,-1.53 0.2,-0.45 0.94,-0.96 1.68,-0.39 0.64,0.49 1.58,3.62 1.77,4.38 0.52,2.08 0.82,3.99 0.89,5.86l0 2.06c-0.09,2.19 -0.48,4.39 -1.15,6.81 -0.68,2.5 -1.77,4.46 -3.08,6.61 -0.6,0.98 -1.33,1.87 -2.04,2.75 -0.31,0.39 -0.47,0.52 -0.79,0.87 -0.29,0.31 -0.4,0.51 -0.73,0.84 -0.34,0.34 -0.57,0.47 -0.89,0.78 -1.26,1.21 -3.1,2.57 -4.66,3.46 -1.32,0.75 -2.95,1.55 -4.41,2.05 -0.78,0.27 -1.73,0.58 -2.49,0.74 -3.23,0.67 -3.78,0.75 -7.16,0.75 -6.32,0 -12.7,-2.78 -17.32,-7.06 -0.31,-0.29 -0.51,-0.4 -0.84,-0.73 -1.39,-1.39 -3.22,-3.78 -4.24,-5.55 -1.15,-2 -2.32,-4.62 -2.79,-6.9 -0.67,-3.23 -0.75,-3.78 -0.75,-7.16 0,-2.19 0.38,-3.95 0.77,-5.79 0.61,-2.81 1.98,-5.48 3.45,-7.9 0.24,-0.4 0.38,-0.56 0.63,-0.93 0.28,-0.42 0.42,-0.57 0.71,-0.95 0.26,-0.35 0.44,-0.55 0.7,-0.86 1.61,-2 3.96,-3.97 6.11,-5.35 4.72,-3.03 9.33,-4.15 15.02,-4.15 4.71,0 10.84,2.06 14.5,4.78l2.48 1.89c0,-1.29 0,-2.57 0,-3.86 0,-0.59 -0.07,-1.27 0.05,-1.82 0.14,-0.64 0.53,-0.94 0.94,-0.99zm-31.83 14.38c-0.44,0 -0.73,0.02 -1.04,-0.31 -0.85,-0.93 0.3,-1.7 0.91,-2.32 0.46,-0.47 1.08,-0.89 1.62,-1.3 0.59,-0.44 1.13,-0.75 1.77,-1.14 0.95,-0.57 2.96,-1.44 4.07,-1.76 1.24,-0.36 2.39,-0.55 3.65,-0.73 0.44,-0.06 2.27,-0.16 2.62,0.01 0.71,0.35 0.84,1.5 0.03,1.91 -0.38,0.19 -0.62,0.11 -1.12,0.13 -0.68,0.03 -1.64,0.16 -2.34,0.27 -1.45,0.23 -2.77,0.65 -3.97,1.13 -1.67,0.66 -4.06,2.24 -5.38,3.58 -0.16,0.16 -0.56,0.55 -0.81,0.55zm13.02 10.11c-0.37,0.07 -0.92,-0.07 -1.59,0.7 -1.26,1.45 -0.19,3.89 1.86,3.72 2.16,-0.18 2.7,-2.73 1.33,-3.93 -0.18,-0.16 -0.47,-0.33 -0.73,-0.42l-0.68 -0.11c-0.1,0 -0.17,0.04 -0.19,0.04zm29.59 -27.42l0.12 0 0 0.12 -0.12 0 0 -0.12z"/>
 </g>
</svg>
