<svg width="38" height="38" viewBox="0 0 38 38" fill="none" xmlns="http://www.w3.org/2000/svg">
<path fill-rule="evenodd" clip-rule="evenodd" d="M0.0840685 37.7953H0.000854492V37.7125H0.0840685V37.7953ZM37.7121 0H37.795V0.0828237H37.7121V0Z" fill="black"/>
<path fill-rule="evenodd" clip-rule="evenodd" d="M18.6113 1.31394C17.983 1.52466 17.149 3.49777 16.6482 4.38262C16.3304 4.94312 16.0314 5.45046 15.7502 6.02945C15.4505 6.64542 15.4132 6.48555 13.9393 6.75867C11.1634 7.27218 8.16365 7.27872 9.98575 9.29844L13.039 12.4896C13.3599 12.8355 13.4458 12.824 13.3557 13.4812C13.1507 14.9678 12.9477 16.4952 12.7571 17.9871C12.6519 18.8138 13.0001 19.5288 13.9274 19.2495L14.3946 19.0272L14.6273 18.5399C15.3353 17.056 16.0168 15.5494 16.7348 14.0736C18.6895 10.0554 24.1592 12.4222 22.232 16.7999C22.0317 17.2544 21.8013 17.709 21.5644 18.1632C21.8826 18.3111 22.2046 18.4606 22.5417 18.6312C22.945 18.8354 23.9192 19.3901 24.4143 19.2803C25.2255 19.0996 25.0695 18.268 24.964 17.4478C24.8788 16.7902 24.3245 13.2366 24.4358 12.8964C24.5163 12.6518 27.6443 9.52572 28.0993 8.97293C28.5881 8.3793 28.3535 7.67126 27.6401 7.47557C26.37 7.12772 24.712 6.93279 23.3441 6.66083C22.0189 6.39734 22.4315 6.68086 21.8321 5.63113L20.0347 2.33016C19.7635 1.84016 19.4738 1.02618 18.6117 1.31472L18.6113 1.31394Z" fill="black"/>
<path fill-rule="evenodd" clip-rule="evenodd" d="M33.1659 12.8175C32.3141 12.5779 31.2463 11.8259 30.4223 11.5424C29.8973 11.3617 26.6926 12.7158 26.4869 13.3483C26.2877 13.9623 26.6814 14.4689 27.1753 14.539C27.8691 14.6376 29.284 13.5494 29.9254 13.43C30.9936 13.232 34.8343 16.6816 35.1709 14.5359C35.2441 14.0667 34.8531 11.7046 34.7699 11.0605C34.6474 10.1101 34.4937 10.1991 35.0134 9.64631L36.9318 7.60772C37.1448 7.37427 37.715 6.89313 37.7781 6.51638C37.9865 5.27674 36.3012 5.30525 35.342 5.12535C33.0969 4.70546 33.0622 4.97203 32.5487 4.05482C32.0826 3.22274 31.6246 2.39297 31.1916 1.54356C30.9454 1.06087 30.7509 0.556616 30.2239 0.473794C29.5691 0.370939 29.3217 0.817794 29.0833 1.25117C28.6322 2.06977 28.1919 2.9446 27.7277 3.77938C27.5042 4.18194 27.1333 4.59798 27.3286 5.14076C27.4781 5.55757 28.0035 5.88154 28.5463 5.64155C29.1152 5.38961 29.5798 3.82561 30.0625 3.31403C30.3264 3.61374 30.6504 4.34951 30.8487 4.7043C31.6369 6.10843 31.4216 6.24788 32.4663 6.42354C32.8581 6.49019 34.8177 6.78758 35.065 6.99714L33.0052 9.12742C32.5067 9.71951 33.0857 11.9045 33.1659 12.8175Z" fill="black"/>
<path fill-rule="evenodd" clip-rule="evenodd" d="M2.72748 6.99875C2.7452 6.9845 2.77063 6.9687 2.78334 6.96177C2.79567 6.95522 2.82418 6.93519 2.84036 6.92749L3.17665 6.82001C6.66638 6.09348 5.73761 6.8281 6.97841 4.64852C7.18874 4.27947 7.47149 3.61111 7.73305 3.31565C8.30279 3.92045 8.6441 5.42897 9.31169 5.66743C9.85331 5.86119 10.3661 5.53067 10.4878 5.07688C10.6319 4.54258 10.2536 4.12153 10.0371 3.71165C9.58944 2.86224 9.12371 2.0344 8.67993 1.19769C8.45072 0.764705 8.14409 0.330177 7.49614 0.490044C6.86284 0.64683 5.81543 3.05408 5.24608 4.05489C4.73874 4.94937 4.73141 4.70591 2.4455 5.12542C1.47474 5.30378 -0.200594 5.27219 0.0197528 6.51414C0.10951 7.01994 0.562531 7.2349 0.877643 7.59508C1.16656 7.92483 1.48438 8.3243 1.8018 8.60551C2.22092 8.97687 2.39543 9.21455 2.74482 9.59553C3.28606 10.1865 3.1782 9.9796 3.04414 10.992C2.82418 12.6592 1.90311 15.6532 3.75526 15.236C4.11005 15.1562 7.41987 13.4239 7.73459 13.4216C8.30935 13.4166 9.77203 14.6281 10.5386 14.4732C11.0117 14.3785 11.3615 13.8519 11.1731 13.3021C10.9412 12.6268 7.89447 11.3248 7.31047 11.5648C6.47994 11.9061 5.43097 12.5926 4.62855 12.8175C4.70984 11.8976 5.2738 9.68722 4.7969 9.12672L2.72671 6.99875H2.72748Z" fill="black"/>
<path fill-rule="evenodd" clip-rule="evenodd" d="M13.0696 24.1056C12.4532 23.1511 11.6535 21.2122 10.6789 20.6591C9.09291 19.7588 7.05316 21.376 7.71189 23.0705C8.26353 24.4912 8.79282 24.7486 9.04668 26.3815C9.2208 27.5037 8.9943 28.4159 8.95809 29.4702C8.87989 31.7407 10.2058 33.9935 12.5218 35.0933C15.9202 36.4505 17.9958 37.9806 21.5976 37.0599C25.2761 35.4793 26.5939 32.3105 27.9368 29.0145C28.8325 27.1339 26.7218 25.0467 24.8577 26.6211C26.2411 24.7763 24.3323 22.0451 21.9786 23.4654C23.1312 21.7496 21.15 19.2815 19.1152 20.8393C19.606 19.2911 20.4381 18.1097 21.2124 16.3511C22.5973 13.2058 19.0209 11.918 17.7358 14.5602C17.671 14.6931 13.4894 23.6734 13.0692 24.1056H13.0696Z" fill="black"/>
</svg>
