<svg width="38" height="38" viewBox="0 0 38 38" fill="none" xmlns="http://www.w3.org/2000/svg">
<path fill-rule="evenodd" clip-rule="evenodd" d="M0.0855087 37.7949H0.00308479V37.7124H0.0855087V37.7949ZM12.9488 9.82008C12.9488 10.829 13.2543 11.9584 13.7493 12.7832C14.6099 14.2282 15.3661 14.5267 15.5387 14.7617C14.9763 15.031 15.1361 14.9004 14.467 15.2975C13.4269 15.9158 12.6049 16.6265 11.8772 17.5961C10.3128 19.684 10.1483 21.27 10.1483 23.8109H10.1676V31.1267H27.6389V23.8109H27.6486C27.6486 21.3012 27.491 19.701 25.9485 17.6351C25.148 16.5634 24.0379 15.625 22.8448 15.0163C22.6241 14.9069 22.4569 14.8588 22.2608 14.7644C22.4018 14.5733 22.8067 14.4227 23.4415 13.6415C23.5317 13.5321 23.5871 13.4913 23.6719 13.3845C25.1411 11.5752 25.2378 8.58081 23.8005 6.54915C23.7185 6.43243 23.6045 6.27295 23.4997 6.15392C23.044 5.62039 22.9662 5.53331 22.3406 5.07759C20.1918 3.50858 17.083 3.6207 15.1045 5.3515L14.0302 6.511C13.3734 7.41782 12.9512 8.70101 12.9512 9.82316L12.9493 9.82008H12.9488ZM37.7941 23.4481C37.7645 20.6086 37.3581 19.0735 35.1896 16.937C34.6103 16.3669 33.9311 16.0275 33.2447 15.6689C33.4076 15.4262 33.8849 15.1885 34.4304 14.3422C36.4913 11.1294 34.6781 7.18205 31.4792 6.28179C29.7842 5.80681 28.4602 6.1046 27.2233 6.75485C28.1909 8.75762 28.0156 11.4858 26.969 13.532C26.8334 13.7963 26.5911 14.0972 26.5225 14.3445C26.7332 14.4855 26.8064 14.519 26.9956 14.7105C27.4005 15.113 27.7741 15.3553 28.2761 16.0152C28.5211 16.338 28.7441 16.6477 28.9741 16.9902C29.2364 17.3781 29.3859 17.674 29.6051 18.1027C30.4171 19.706 30.716 21.3178 30.7253 23.6973V23.8113V31.1271H37.7961V23.8113V23.6684V23.4477H37.7934L37.7941 23.4473V23.4481ZM37.7136 0H37.7961V0.0820478H37.7136V0ZM0.000790006 23.4481V22.985C0.00579789 22.2019 0.0370024 21.5913 0.223835 20.834C0.839805 18.3343 2.41381 16.7968 4.54987 15.6693C4.39694 15.4389 3.85185 15.1261 3.33796 14.2994C3.01784 13.7856 2.70694 13.1476 2.58637 12.4685C1.78588 7.94366 6.34459 4.53176 10.5685 6.75564C10.0936 7.74027 9.7854 9.41788 9.99689 10.8756C10.3289 13.1688 11.156 13.9157 11.2693 14.3453C11.0316 14.5024 10.9734 14.5348 10.7623 14.7451C10.5805 14.9293 10.4881 14.9605 10.3039 15.1257C10.1102 15.3002 10.0782 15.3877 9.91792 15.5764C9.33585 16.2625 9.40136 16.1223 8.7904 17.0314C8.52845 17.4194 8.39515 17.6932 8.18905 18.1031C7.377 19.7064 7.07807 21.3182 7.06882 23.6977V23.8117V31.1271H0V23.8117V23.4481L0.000790006 23.4469V23.4481Z" fill="black"/>
</svg>
