<svg width="38" height="38" viewBox="0 0 38 38" fill="none" xmlns="http://www.w3.org/2000/svg">
<path fill-rule="evenodd" clip-rule="evenodd" d="M0.082424 37.7953H0V37.7128H0.082424V37.7953ZM37.2968 0H37.3792V0.0824381H37.2968V0Z" fill="black"/>
<path fill-rule="evenodd" clip-rule="evenodd" d="M0.606728 21.8729L11.7936 21.8756L11.7939 36.5426L11.7951 36.8492L0.605957 36.8504L0.606728 21.8733V21.8729ZM6.96558 25.588L6.96404 27.1173C3.44349 27.1023 3.91732 26.699 3.90075 30.3339C3.89266 32.0543 4.40809 31.7126 6.73599 31.7134C7.39164 31.7134 8.17517 31.8375 8.42826 31.2577C9.04808 29.8378 6.41202 30.1772 5.42778 30.1825L5.43278 28.6505C8.92097 28.6212 8.48412 29.1494 8.49876 25.4301C8.50107 24.7255 8.49029 24.1195 7.73294 24.0552C7.1293 24.004 6.29182 24.0514 5.66314 24.0514C5.00904 24.0514 4.22203 23.9273 3.96739 24.504C3.69235 25.1277 4.19699 25.5703 4.81488 25.5857C5.52716 25.6026 6.25022 25.5714 6.96558 25.5884V25.588Z" fill="black"/>
<path fill-rule="evenodd" clip-rule="evenodd" d="M13.7855 15.2202H23.5944L24.054 15.2221L24.0536 36.8493L13.3259 36.8504L13.3232 15.2214L13.7855 15.2202ZM17.9228 23.1327C17.4879 23.1277 16.9983 23.0687 16.7028 23.2887C16.4524 23.4755 16.3045 23.8473 16.4597 24.2082C16.7509 24.8835 17.9532 24.6624 18.6898 24.6624C19.429 24.6624 20.6232 24.8843 20.9214 24.2067C21.0901 23.8234 20.9129 23.4409 20.6313 23.2548C20.3324 23.0572 19.8427 23.128 19.4567 23.1327C19.4544 22.1103 19.4564 21.0875 19.4564 20.0648C19.4564 19.3829 19.6486 17.6525 19.2252 17.2303C18.855 16.8609 16.9755 16.8824 16.6219 17.2295C16.3176 17.5277 16.3133 17.9965 16.6204 18.3028C16.9443 18.6256 17.4355 18.5316 17.9239 18.5339L17.9232 23.1323L17.9228 23.1327Z" fill="black"/>
<path fill-rule="evenodd" clip-rule="evenodd" d="M18.4621 0.946528C19.293 0.913014 19.4903 1.37066 20.0477 2.61068C20.6529 3.94394 20.827 4.58765 21.5288 4.7063C23.2003 4.95592 25.316 4.69166 25.3603 5.95441C25.3826 6.58541 24.4569 7.25069 24.0825 7.67058C23.5902 8.20604 23.2392 8.79042 22.6298 9.20992L23.3463 13.1165C23.0143 15.1489 19.6524 12.2659 18.8473 12.2289C18.4964 12.2277 16.0718 13.9874 15.4412 14.0109C13.8749 14.031 14.4851 12.5579 14.7108 10.9565C14.7594 10.7004 14.8645 10.0343 14.8649 9.80047C14.9847 8.51499 11.4684 7.25608 12.0909 5.86581C12.4788 5.05916 14.9681 5.07688 15.9512 4.82109C16.5603 4.6358 16.3253 4.51831 16.7714 3.53753L17.6639 1.57521C17.8284 1.20193 17.9463 0.969255 18.4602 0.945371L18.4617 0.945757L18.4621 0.946528Z" fill="black"/>
<path fill-rule="evenodd" clip-rule="evenodd" d="M25.5884 25.8912L36.774 25.8943L36.7737 36.8489L25.5864 36.8504L25.5887 25.8912H25.5884ZM30.7969 27.4248C30.3254 27.4248 29.6004 27.3096 29.2368 27.5504C28.9063 27.7696 28.7641 28.29 29.0315 28.6529C29.4109 29.1683 31.2496 28.953 31.9472 28.958L31.9457 30.4916C31.3066 30.4869 30.6675 30.4892 30.0288 30.4877C29.4194 30.4858 28.8974 30.6148 28.8905 31.2543C28.8793 32.3121 30.4807 32.0128 31.9472 32.0232L31.9457 33.5568C31.008 33.5502 29.357 33.3749 29.0107 33.9139C28.7792 34.2744 28.877 34.786 29.2796 34.9906C29.6189 35.1635 30.3709 35.0857 30.7969 35.0857C33.9816 35.0857 33.4785 35.5025 33.4785 31.2547C33.4785 26.9564 33.9515 27.4244 30.7969 27.4244V27.4248Z" fill="black"/>
</svg>
